<svg xmlns="http://www.w3.org/2000/svg" width="136.213" height="33.203" viewBox="0 0 136.213 33.203">
  <g id="MWD_logo" data-name="MWD logo" transform="translate(-658.5 -19.898)">
    <g id="Group_894" data-name="Group 894" transform="translate(658.5 19.898)">
      <path id="Path_1383" data-name="Path 1383" d="M171.265.045h3.226c.157.319,5.962,11.911,6.7,13.3.708-1.442,1.228-2.427,1.8-3.554.734-1.456,1.089-1.783.591-2.74-1.154-2.334-2.3-4.564-3.5-7.007h3.211c2.217,4.46,4.552,8.906,6.886,13.6,2.413-4.8,4.59-9.127,6.868-13.6h3.241c-2.936,5.8-5.848,11.6-8.85,17.558h-2.471c-1.057-2.054-2.3-4.43-3.358-6.515-1.134,2.1-2.274,4.435-3.319,6.515h-2.156C179.71,16.782,173.94,5.361,171.265.045Z" transform="translate(-122.242 -0.032)" fill="#fff" fill-rule="evenodd"/>
      <path id="Path_1384" data-name="Path 1384" d="M14.011,17.6H11.886c-1.833-4.033-3.664-8.069-5.63-12.4C5.008,9.555,3.855,13.579,2.7,17.6H0C.362,16.128,3.6,4.424,4.862.045H7.023c1.954,4.347,3.907,8.695,6,13.354,1.084-2.458,5.1-11.055,6.155-13.354h2.157c.267,1.106,3.1,12.735,4.3,17.558H22.959c-1.073-4.038-2.183-8.361-3.219-12.387C18.64,7.538,14.889,15.733,14.011,17.6Z" transform="translate(0 -0.032)" fill="#fff" fill-rule="evenodd"/>
      <path id="Path_1385" data-name="Path 1385" d="M296.884.045c.049.845.1,1.691.156,2.678H284.31V14.538h12.576c.035.706.116,1.679.185,3.066H281.217V.045Z" transform="translate(-200.721 -0.032)" fill="#fff" fill-rule="evenodd"/>
      <path id="Path_1386" data-name="Path 1386" d="M300.17,27.458V24.989H309.8v2.469Z" transform="translate(-214.249 -17.836)" fill="#fff" fill-rule="evenodd"/>
      <path id="Path_1387" data-name="Path 1387" d="M108.747.127H104.47a8.776,8.776,0,1,0,0,17.553h4.277a8.776,8.776,0,1,0,0-17.553ZM108.6,14.813h-3.986a5.91,5.91,0,0,1,0-11.82H108.6a5.91,5.91,0,1,1,0,11.82Z" transform="translate(-68.302 -0.091)" fill="#fff" fill-rule="evenodd"/>
      <path id="Path_1388" data-name="Path 1388" d="M355.168,0H344.951l-.014,17.553h10.231a8.777,8.777,0,0,0,0-17.553Zm-.145,14.687h-7.008V2.867h7.008a5.91,5.91,0,0,1,0,11.82Z" transform="translate(-246.202)" fill="#fff" fill-rule="evenodd"/>
      <path id="Path_1389" data-name="Path 1389" d="M296.886,50.676c.035.706.132,2,.185,3.066H281.217" transform="translate(-200.721 -36.17)" fill="#fff" fill-rule="evenodd"/>
      <path id="Path_1390" data-name="Path 1390" d="M436.151.045c.049.845.1,1.691.155,2.678H423.575V14.538h12.575c.036.706.116,1.679.184,3.066H420.482V.045Z" transform="translate(-300.122 -0.032)" fill="#fff" fill-rule="evenodd"/>
      <path id="Path_1391" data-name="Path 1391" d="M439.438,27.458V24.989h9.628v2.469Z" transform="translate(-313.652 -17.836)" fill="#fff" fill-rule="evenodd"/>
      <path id="Path_1392" data-name="Path 1392" d="M436.151,50.676c.036.706.132,2,.184,3.066H420.482" transform="translate(-300.122 -36.17)" fill="#fff" fill-rule="evenodd"/>
    </g>
    <g id="Group_895" data-name="Group 895" transform="translate(702.177 43.314)">
      <path id="Path_1393" data-name="Path 1393" d="M154.711,83.935h-2.124l.151-.776h5.153l-.151.776h-2.134l-1.229,6.489h-.895Z" transform="translate(-152.587 -82.771)" fill="#fff"/>
      <path id="Path_1394" data-name="Path 1394" d="M168.931,89.456l1.455-7.653h.895l-.647,3.363h.022a2.241,2.241,0,0,1,1.865-1.045,1.265,1.265,0,0,1,1.294,1.4,4.822,4.822,0,0,1-.086.884l-.582,3.05h-.895l.582-3.007a4.254,4.254,0,0,0,.065-.722.758.758,0,0,0-.809-.862,2.252,2.252,0,0,0-1.779,1.984l-.485,2.609Z" transform="translate(-164.253 -81.803)" fill="#fff"/>
      <path id="Path_1395" data-name="Path 1395" d="M192.936,94.934a3.6,3.6,0,0,1-1.725.41,1.878,1.878,0,0,1-1.983-2.091c0-1.574,1.164-3.352,2.846-3.352a1.356,1.356,0,0,1,1.531,1.336c0,1.369-1.541,1.735-3.471,1.7a2.161,2.161,0,0,0,.108.992,1.187,1.187,0,0,0,1.164.7,2.911,2.911,0,0,0,1.4-.367Zm-.992-4.333c-.852,0-1.488.83-1.7,1.649,1.4.011,2.5-.173,2.5-.981C192.742,90.838,192.418,90.6,191.944,90.6Z" transform="translate(-178.74 -87.582)" fill="#fff"/>
      <path id="Path_1396" data-name="Path 1396" d="M217.246,87.007h-2.641l-.5,2.652h2.975l-.151.765h-3.87l1.38-7.265h3.708l-.151.765h-2.8l-.442,2.328H217.4Z" transform="translate(-195.753 -82.771)" fill="#fff"/>
      <path id="Path_1397" data-name="Path 1397" d="M230.249,90.314l.507,1.142c.14.334.248.593.345.83h.032c.2-.291.313-.463.571-.787l.959-1.186H233.7l-2.2,2.544,1.229,2.673h-.97l-.528-1.175c-.173-.388-.248-.593-.377-.927h-.022c-.161.248-.313.485-.539.8l-1.056,1.3H228.2l2.285-2.684-1.207-2.533Z" transform="translate(-206.557 -87.878)" fill="#fff"/>
      <path id="Path_1398" data-name="Path 1398" d="M245.636,97.37l1.046-5.5c.108-.625.215-1.326.291-1.854h.819l-.151.981h.021a2.361,2.361,0,0,1,1.876-1.1c1.132,0,1.606.927,1.606,1.886,0,1.833-1.315,3.568-3.05,3.568a2.293,2.293,0,0,1-1.132-.237h-.021l-.421,2.253Zm1.466-3.007a1.575,1.575,0,0,0,.992.291c1.153,0,2.124-1.434,2.124-2.8,0-.55-.248-1.207-1-1.207-.7,0-1.584.809-1.854,2.264Z" transform="translate(-219.001 -87.582)" fill="#fff"/>
      <path id="Path_1399" data-name="Path 1399" d="M271.035,94.934a3.6,3.6,0,0,1-1.725.41,1.878,1.878,0,0,1-1.983-2.091c0-1.574,1.164-3.352,2.846-3.352a1.356,1.356,0,0,1,1.531,1.336c0,1.369-1.542,1.735-3.471,1.7a2.164,2.164,0,0,0,.108.992,1.187,1.187,0,0,0,1.164.7,2.912,2.912,0,0,0,1.4-.367Zm-.992-4.333c-.852,0-1.487.83-1.7,1.649,1.4.011,2.5-.173,2.5-.981C270.841,90.838,270.517,90.6,270.043,90.6Z" transform="translate(-234.484 -87.582)" fill="#fff"/>
      <path id="Path_1400" data-name="Path 1400" d="M284.2,95.236l.636-3.363c.13-.679.216-1.369.27-1.854h.787c-.043.366-.086.733-.14,1.132h.032a1.886,1.886,0,0,1,1.6-1.25,1.753,1.753,0,0,1,.248.021l-.172.884a1.269,1.269,0,0,0-.237-.021c-.776,0-1.466.938-1.692,2.156l-.431,2.3Z" transform="translate(-246.524 -87.582)" fill="#fff"/>
      <path id="Path_1401" data-name="Path 1401" d="M300.241,85.418l-.27,1.4h1.251l-.14.7h-1.251l-.485,2.534a4.553,4.553,0,0,0-.1.84.44.44,0,0,0,.5.5,2.447,2.447,0,0,0,.42-.032l-.043.7a2.084,2.084,0,0,1-.69.1.97.97,0,0,1-1.1-1.014,4.847,4.847,0,0,1,.108-.981l.517-2.641H298.2l.14-.7h.744l.226-1.175Z" transform="translate(-256.522 -84.383)" fill="#fff"/>
      <path id="Path_1402" data-name="Path 1402" d="M320.084,87.007h-2.641l-.5,2.652h2.975l-.151.765H315.9l1.38-7.265h3.708l-.151.765h-2.8l-.442,2.328h2.641Z" transform="translate(-269.154 -82.771)" fill="#fff"/>
      <path id="Path_1403" data-name="Path 1403" d="M333.087,90.314l.507,1.142c.14.334.248.593.345.83h.032c.2-.291.313-.463.571-.787l.959-1.186h1.035l-2.2,2.544,1.229,2.673h-.97l-.528-1.175c-.173-.388-.248-.593-.377-.927h-.022c-.161.248-.313.485-.539.8l-1.056,1.3h-1.035l2.285-2.684-1.207-2.533Z" transform="translate(-279.959 -87.878)" fill="#fff"/>
      <path id="Path_1404" data-name="Path 1404" d="M348.474,97.37l1.045-5.5c.108-.625.216-1.326.291-1.854h.819l-.151.981h.021a2.36,2.36,0,0,1,1.876-1.1c1.132,0,1.606.927,1.606,1.886,0,1.833-1.315,3.568-3.05,3.568a2.293,2.293,0,0,1-1.132-.237h-.021l-.42,2.253Zm1.466-3.007a1.575,1.575,0,0,0,.992.291c1.153,0,2.124-1.434,2.124-2.8,0-.55-.248-1.207-1-1.207-.7,0-1.584.809-1.854,2.264Z" transform="translate(-292.403 -87.582)" fill="#fff"/>
      <path id="Path_1405" data-name="Path 1405" d="M373.873,94.934a3.6,3.6,0,0,1-1.725.41,1.878,1.878,0,0,1-1.983-2.091c0-1.574,1.164-3.352,2.845-3.352a1.356,1.356,0,0,1,1.531,1.336c0,1.369-1.542,1.735-3.471,1.7a2.164,2.164,0,0,0,.108.992,1.187,1.187,0,0,0,1.164.7,2.911,2.911,0,0,0,1.4-.367Zm-.992-4.333c-.852,0-1.488.83-1.7,1.649,1.4.011,2.5-.173,2.5-.981C373.679,90.838,373.355,90.6,372.881,90.6Z" transform="translate(-307.885 -87.582)" fill="#fff"/>
      <path id="Path_1406" data-name="Path 1406" d="M387.034,95.236l.636-3.363c.129-.679.216-1.369.27-1.854h.787c-.043.366-.086.733-.14,1.132h.032a1.886,1.886,0,0,1,1.6-1.25,1.752,1.752,0,0,1,.248.021l-.172.884a1.271,1.271,0,0,0-.237-.021c-.776,0-1.466.938-1.693,2.156l-.431,2.3Z" transform="translate(-319.925 -87.582)" fill="#fff"/>
      <path id="Path_1407" data-name="Path 1407" d="M399.008,90.4l1-5.217h.895l-1,5.217Zm1.164-6.672a.593.593,0,0,1,.592-.6.518.518,0,0,1,.528.561.59.59,0,0,1-.6.6A.516.516,0,0,1,400.172,83.725Z" transform="translate(-328.472 -82.744)" fill="#fff"/>
      <path id="Path_1408" data-name="Path 1408" d="M411.528,94.934a3.6,3.6,0,0,1-1.725.41,1.878,1.878,0,0,1-1.983-2.091c0-1.574,1.164-3.352,2.846-3.352a1.356,1.356,0,0,1,1.531,1.336c0,1.369-1.541,1.735-3.471,1.7a2.164,2.164,0,0,0,.108.992,1.187,1.187,0,0,0,1.164.7,2.912,2.912,0,0,0,1.4-.367Zm-.992-4.333c-.852,0-1.487.83-1.7,1.649,1.4.011,2.5-.173,2.5-.981C411.334,90.838,411.01,90.6,410.536,90.6Z" transform="translate(-334.762 -87.582)" fill="#fff"/>
      <path id="Path_1409" data-name="Path 1409" d="M424.69,95.236l.7-3.7c.119-.582.183-1.089.248-1.52h.8l-.129,1.024h.022a2.281,2.281,0,0,1,1.93-1.142,1.284,1.284,0,0,1,1.326,1.455,5.038,5.038,0,0,1-.1.841l-.582,3.04h-.895l.571-3.007a3.449,3.449,0,0,0,.075-.668c0-.528-.2-.917-.819-.917a2.3,2.3,0,0,0-1.779,2.059l-.474,2.533Z" transform="translate(-346.803 -87.582)" fill="#fff"/>
      <path id="Path_1410" data-name="Path 1410" d="M448.576,95.057a3.6,3.6,0,0,1-1.509.313,1.874,1.874,0,0,1-2-2.016,3.3,3.3,0,0,1,3.19-3.417,2.657,2.657,0,0,1,1.089.226l-.258.711a2.029,2.029,0,0,0-.884-.194,2.43,2.43,0,0,0-2.21,2.565,1.229,1.229,0,0,0,1.294,1.391,2.747,2.747,0,0,0,1.207-.291Z" transform="translate(-361.343 -87.609)" fill="#fff"/>
      <path id="Path_1411" data-name="Path 1411" d="M464.285,94.934a3.6,3.6,0,0,1-1.725.41,1.878,1.878,0,0,1-1.983-2.091c0-1.574,1.164-3.352,2.846-3.352a1.356,1.356,0,0,1,1.531,1.336c0,1.369-1.542,1.735-3.471,1.7a2.164,2.164,0,0,0,.108.992,1.187,1.187,0,0,0,1.164.7,2.912,2.912,0,0,0,1.4-.367Zm-.992-4.333c-.852,0-1.487.83-1.7,1.649,1.4.011,2.5-.173,2.5-.981C464.091,90.838,463.767,90.6,463.293,90.6Z" transform="translate(-372.417 -87.582)" fill="#fff"/>
    </g>
  </g>
</svg>
