<svg id="logo_header" xmlns="http://www.w3.org/2000/svg" width="119.676" height="34.193" viewBox="0 0 119.676 34.193">
  <path id="Path_6409" data-name="Path 6409" d="M111.111,0H47.2V34.193h67.183a2.063,2.063,0,0,0,2.062-2.062V5.35A5.351,5.351,0,0,0,111.111,0Z" transform="translate(3.234)" fill="#fbd702"/>
  <path id="Path_6410" data-name="Path 6410" d="M5.327,34.193H51.411V0H2.039A2.061,2.061,0,0,0,0,2.062V28.841A5.35,5.35,0,0,0,5.327,34.193Z" transform="translate(0 0)" fill="#cecbcb"/>
  <g id="Group_21" data-name="Group 21" transform="translate(7.005 3.985)">
    <path id="Path_6411" data-name="Path 6411" d="M22.406,20.722c0-2.63.885-7.172,4.286-7.172,2.235,0,2.707,1.745,2.707,3.712,0,2.682-.888,7.417-4.426,7.417C22.791,24.677,22.406,22.434,22.406,20.722Zm2.568,4.591c3.927,0,6.266-3.792,6.266-7.389,0-2.851-1.539-5.009-4.521-5.009-3.843,0-6.151,4.124-6.151,7.556C20.566,23.238,22.1,25.313,24.974,25.313Z" transform="translate(-5.596 -3.1)" fill="#114b8e"/>
    <path id="Path_6412" data-name="Path 6412" d="M35.5,21.085c-1.554,0-1.829-1.776-1.829-2.992,0-4.263,2.075-4.32,2.683-4.32,1.166,0,1.582,1.689,1.582,2.907C37.939,18.258,37.606,21.085,35.5,21.085Zm.47-8.17c-2.159,0-3.993,2.353-3.993,4.985A4.187,4.187,0,0,0,33.2,21.138c-.252.331-1.165.913-1.165,1.713a3.013,3.013,0,0,0,.416,1.522c.014.267-2.451.513-2.451,2.7C30,30,32.934,30.61,35.332,30.61c1.958,0,4.862-.22,4.862-2.848,0-1.6-1.139-2.268-2.492-2.738-3.369-1.149-4.613-1.4-4.613-2.615A.8.8,0,0,1,34,21.551c.592,0,1.118.139,1.7.139,2.486,0,3.994-2.407,3.994-4.7a5.311,5.311,0,0,0-.631-2.573c0-.054.082-.054.165-.054a5.668,5.668,0,0,0,1.627.307c.331-.01,1.134-.174,1.134-.867a.6.6,0,0,0-.579-.665,3.741,3.741,0,0,0-1,.275,3.238,3.238,0,0,1-1.238.314,2.175,2.175,0,0,1-1.4-.418A3.2,3.2,0,0,0,35.973,12.915ZM35.5,30.056c-1.9,0-4.079-.774-4.079-3.011,0-1.079.359-1.884,1.462-2.133.713.692,5.7,1.468,5.7,3.4C38.581,28.758,38.169,30.056,35.5,30.056Z" transform="translate(-4.949 -3.1)" fill="#114b8e"/>
    <path id="Path_6413" data-name="Path 6413" d="M45.247,23.675c.662,0,1.326-1.686,1.715-1.686a.275.275,0,0,1,.274.274c0,.557-1.6,3.254-3.117,3.254-.88,0-1.123-1.044-1.123-1.729,0-2.631,1.369-8.063,1.369-8.811,0-.886-2.09-.052-2.09-.83,0-.5,1.158-.252,2.916-.559.445-.081.746-.274.965-.274.391,0,.391.165.391.3,0,.167-1.744,7.623-1.744,9.341C44.8,23.51,44.912,23.675,45.247,23.675Zm.882-13.49c-.41,0-.986-1.272-.986-1.6,0-.414.713-1.435,1.124-1.435s.991,1.273.991,1.6C47.257,9.161,46.541,10.185,46.128,10.185Z" transform="translate(-4.109 -3.495)" fill="#114b8e"/>
    <path id="Path_6414" data-name="Path 6414" d="M70.874,14.825c.053,2.912-.258,5.316-2.22,7.6a10.652,10.652,0,0,1-7.978,3.6A11.149,11.149,0,1,1,69.934,8.389l-1.741,1.631a8.762,8.762,0,0,0-7.407-4.061,8.946,8.946,0,0,0-8.8,9.011A8.685,8.685,0,0,0,54.5,21.054,9.057,9.057,0,0,0,60.619,23.8c3.744,0,7.688-2.744,7.688-6.748H61.9V14.825h8.972Z" transform="translate(-3.607 -3.729)" fill="#114b8e"/>
    <path id="Path_6415" data-name="Path 6415" d="M73.455,16.93a4.241,4.241,0,0,1,4.08-3.522,4.1,4.1,0,0,1,3.939,3.522Zm10.412,1.942c.228-4-2.055-7.575-6.361-7.575C73.31,11.3,71,14.583,71,18.558c0,3.888,2.567,6.95,6.562,6.95a6.757,6.757,0,0,0,6.192-3.781L81.813,20.6c-.886,1.613-2.141,2.794-4.079,2.794a4.368,4.368,0,0,1-4.393-4.523Z" transform="translate(-2.14 -3.21)" fill="#114b8e"/>
    <path id="Path_6416" data-name="Path 6416" d="M91.1,13.407c2.837,0,4.529,2.182,4.529,4.88,0,2.726-1.544,5.106-4.5,5.106-2.868,0-4.416-2.5-4.416-5.139A4.572,4.572,0,0,1,91.1,13.407Zm6.7-1.74H95.521v1.915h-.06A5.832,5.832,0,0,0,90.847,11.3c-4.048,0-6.474,3.289-6.474,7.136,0,3.729,2.481,7.075,6.44,7.075a5.681,5.681,0,0,0,4.648-2.227h.061v1.854H97.8V11.668Z" transform="translate(-1.224 -3.21)" fill="#114b8e"/>
    <path id="Path_6417" data-name="Path 6417" d="M101.716,13.124h.061c.8-1.057,1.482-1.827,2.965-1.827a4.056,4.056,0,0,1,2.057.629L105.71,14.01a2.208,2.208,0,0,0-1.367-.6c-2.513,0-2.627,3.228-2.627,4.985v6.725H99.435V11.685h2.281v1.439Z" transform="translate(-0.192 -3.21)" fill="#114b8e"/>
    <path id="Path_6418" data-name="Path 6418" d="M10.506,10.225c.112-.8.168-1.49.168-1.627C10.674,6.25,8.1,7.409,8.1,6.415a.29.29,0,0,1,.3-.3c.856,0,2.377.111,3.9.111.748,0,1.525-.111,2.27-.111a.3.3,0,0,1,.3.3c0,.717-1.825.109-2.046,1.822L10.84,22.855a9.5,9.5,0,0,0-.056.995c0,.721.638.777,2.092.777,7.283,0,6.555-2.959,7.356-2.959a.262.262,0,0,1,.256.277c0,.306-.022,1.135-1.5,3.1-.355.448-.684.639-1.788.639-1.456,0-2.605-.107-5.073-.107-1.621,0-3.386.107-4.519.107-.857,0-1.051.028-1.051-.239,0-.825,1.935.435,2.294-2.288Z" transform="translate(-6.556 -3.566)" fill="#114b8e"/>
  </g>
</svg>
